PathFileType	4	(X/Y/Z)	..\data\sprint.trc
DataRate	CameraRate	NumFrames	NumMarkers	Units	OrigDataRate	OrigDataStartFrame	OrigNumFrames
250.000000	250.000000	4	51	mm	250.000000	121	324
Frame#	Time	C7			RSH			LSH			MAN			T7			LARM			LELB			LFOREARM			LWR			RARM			RELB			RFOREARM			RWR			RASI			LASI			SACR			P1			P2			P3			LTHLP			LTHLD			LTHAP			LTHAD			LLEPI			LPAT			LTIAP			LTIAD			LTILAT			LLMAL			LHEEL			LMFS			LMFL			LP1MT			LTOE			LP5MT			RTHLP			RTHLD			RTHAP			RTHAD			RLEPI			RPAT			RTIAP			RTIAD			RTILAT			RLMAL			RHEEL			RMFS			RMFL			RP1MT			RTOE			RP5MT			
		X1	Y1	Z1	X2	Y2	Z2	X3	Y3	Z3	X4	Y4	Z4	X5	Y5	Z5	X6	Y6	Z6	X7	Y7	Z7	X8	Y8	Z8	X9	Y9	Z9	X10	Y10	Z10	X11	Y11	Z11	X12	Y12	Z12	X13	Y13	Z13	X14	Y14	Z14	X15	Y15	Z15	X16	Y16	Z16	X17	Y17	Z17	X18	Y18	Z18	X19	Y19	Z19	X20	Y20	Z20	X21	Y21	Z21	X22	Y22	Z22	X23	Y23	Z23	X24	Y24	Z24	X25	Y25	Z25	X26	Y26	Z26	X27	Y27	Z27	X28	Y28	Z28	X29	Y29	Z29	X30	Y30	Z30	X31	Y31	Z31	X32	Y32	Z32	X33	Y33	Z33	X34	Y34	Z34	X35	Y35	Z35	X36	Y36	Z36	X37	Y37	Z37	X38	Y38	Z38	X39	Y39	Z39	X40	Y40	Z40	X41	Y41	Z41	X42	Y42	Z42	X43	Y43	Z43	X44	Y44	Z44	X45	Y45	Z45	X46	Y46	Z46	X47	Y47	Z47	X48	Y48	Z48	X49	Y49	Z49	X50	Y50	Z50	X51	Y51	Z51	

122	0.484	-1427.871826171875	1472.696533203125	201.0823059082032	-1360.695190429688	1473.697631835938	334.6151123046876	-1387.674438476563	1473.673950195313	25.56268882751466	-1295.816772460938	1374.57958984375	162.485580444336	-1502.035400390625	1283.732177734375	227.660858154297	-1539.300537109376	1438.462646484375	-64.30998229980472	-1690.144653320313	1434.011474609375	-77.33540344238284	-1778.423339843751	1314.402221679688	-107.5056838989258	-1878.718872070313	1225.800537109375	-119.910385131836	-1236.901489257813	1337.343017578125	424.8369140625002	-1146.4189453125	1238.305053710938	468.1842041015627	-1076.56884765625	1341.827880859375	394.0545043945315	-1018.409423828125	1430.57275390625	328.2473144531251	-1345.093872070313	966.8323364257817	303.2463989257814	-1344.333251953125	994.616577148438	90.22014617919925	-1510.8994140625	1059.399169921875	211.1483917236329	-1532.712768554688	1031.771240234375	159.1969146728516	-1532.953491210938	1040.162109375	264.8275756835939	-1575.866333007813	991.291381835938	212.459442138672	-1237.899047851563	832.3125610351567	22.22777748107911	-1129.541381835938	806.440063476563	46.8822593688965	-1197.706420898438	948.9912719726567	110.7416381835938	-1092.013671875	906.929565429688	120.2014923095704	-1043.160522460938	763.2637329101565	81.90797424316409	-970.998413085938	816.5305175781255	149.3647460937501	-1035.8203125	605.1142578125002	154.7513275146485	-1077.836181640625	471.0178527832034	157.1811218261719	-1102.269409179688	551.4292602539065	86.78472137451175	-1151.497436523438	334.1046752929689	111.6193618774415	-1214.209838867188	306.7249755859376	169.5762939453126	-1043.4970703125	304.9583740234376	148.2066040039063	-1088.1826171875	286.4313049316407	91.47293090820315	-988.4091186523442	234.6768646240236	165.5619812011719	-969.3992309570317	260.9209594726564	125.7100448608399	-1032.963500976563	240.5477142333986	49.09420013427737	-1595.874145507813	780.1994018554692	375.6494140625001	-1664.994506835938	693.859313964844	350.0897216796876	-1513.9599609375	682.7005004882815	298.6867065429689	-1590.098144531251	621.1619873046877	272.3167114257814	-1770.003540039063	591.5777587890627	313.5316162109376	-1708.254516601563	527.682556152344	255.3021697998048	-1931.109741210938	442.052917480469	230.0393524169923	-2041.918457031251	375.8305969238282	217.4796142578126	-1971.280883789063	480.3330688476565	303.9987182617189	-2162.758544921876	340.3688964843751	269.4716796875001	-2195.197509765626	397.2335510253909	214.2658691406251	-2149.411621093751	230.6030578613282	223.1872100830079	-2197.503662109376	263.3005981445314	269.5979919433595	-2194.294189453126	161.7834167480469	173.8492889404297	-2180.226562500001	145.7916412353516	218.5928649902345	-2244.026611328126	183.7960815429688	286.2072143554689	
123	0.488	-1389.563110351563	1474.1328125	200.757049560547	-1322.516845703125	1475.880737304688	334.8812866210939	-1349.17822265625	1474.227905273438	24.93384933471681	-1257.604248046875	1374.944580078125	162.2088470458985	-1464.026977539063	1286.3271484375	228.6470489501954	-1510.465087890625	1439.93701171875	-53.83974456787112	-1653.808105468751	1438.26953125	-69.9304122924805	-1742.197875976563	1318.926879882813	-103.334342956543	-1842.441894531251	1230.805419921875	-117.3602447509766	-1198.219970703125	1339.130737304688	425.5862121582034	-1107.811157226563	1240.757202148438	468.3630981445315	-1042.587890625	1346.474487304688	393.5754699707034	-988.7644042968755	1437.477294921875	327.3436584472657	-1308.086669921875	968.4528808593755	304.8131408691407	-1307.222900390625	995.2290649414067	91.128288269043	-1474.738037109375	1059.952758789063	210.4773712158204	-1495.560424804688	1032.11083984375	158.3965454101563	-1496.151489257813	1041.058471679688	263.770721435547	-1538.917968750001	992.037719726563	211.8494110107423	-1200.807861328125	829.999633789063	23.159574508667	-1092.678344726563	803.0776977539067	47.85204315185548	-1161.620361328125	945.636840820313	113.8124160766602	-1055.658447265625	903.8593139648442	122.0530090332032	-1007.696960449219	758.6345214843752	81.2709655761719	-935.9187011718755	813.9420776367192	147.4821319580079	-989.4580078125005	599.591491699219	153.9815673828126	-1021.186218261719	462.7962036132815	157.1268157958985	-1050.811767578125	540.102966308594	85.333122253418	-1083.265502929688	319.4331665039064	111.9557037353516	-1145.88037109375	288.1818237304689	168.905014038086	-973.8512573242192	299.2213134765626	150.7301177978516	-1015.500366210938	277.021697998047	92.9309005737305	-913.282592773438	235.4825286865236	170.3684234619141	-896.3215332031255	262.0628967285157	130.0052185058594	-956.8502807617192	234.3945770263673	52.90252304077151	-1557.404541015626	781.8193359375005	377.3468322753907	-1625.286010742188	693.7774047851565	352.725067138672	-1475.65576171875	684.671081542969	298.0762634277345	-1550.561889648438	621.998474121094	272.0553283691407	-1730.798461914063	591.1932373046877	312.7310485839845	-1671.600097656251	527.959899902344	252.6452636718751	-1902.695922851563	454.3487548828127	229.0487060546876	-2017.766479492188	395.3249511718752	216.7964172363282	-1939.707153320313	492.2763366699221	303.9122619628907	-2139.492187500001	365.9586181640626	269.521453857422	-2170.912841796876	424.1468200683596	214.0141754150392	-2131.234619140626	255.4651794433595	223.1577758789064	-2177.463378906251	290.6721191406251	270.9434814453126	-2178.791015625001	189.0385131835938	175.6805877685547	-2179.370117187501	168.5360412597657	232.6651000976564	-2220.372314453126	215.556610107422	292.3706054687501	
124	0.492	-1350.893188476563	1476.582397460938	199.9578704833986	-1283.41943359375	1478.466796875	335.0698852539064	-1310.552734375	1474.762573242188	24.0021095275879	-1219.10791015625	1375.715209960938	162.2229766845704	-1425.684448242188	1289.203979492188	228.9951934814454	-1473.5439453125	1441.051513671875	-49.83193206787112	-1616.834960937501	1440.381958007813	-63.32942962646487	-1705.285156250001	1321.4765625	-99.33300018310553	-1804.935913085938	1233.84521484375	-115.061019897461	-1159.828857421875	1340.460083007813	426.6143188476565	-1070.479614257813	1241.990844726563	468.9442138671877	-1008.83154296875	1349.203002929688	393.8098144531252	-958.591918945313	1441.693115234375	327.0314941406251	-1270.656494140625	970.645141601563	305.9077148437501	-1270.394409179688	996.1232299804692	91.90303039550784	-1438.001220703125	1060.906005859375	209.7594299316407	-1458.644653320313	1033.076904296875	157.2569580078126	-1458.86279296875	1041.782104492188	263.2113342285157	-1502.066650390625	993.3374633789067	211.0991973876954	-1165.174438476563	828.262084960938	22.90277671813966	-1057.384765625	799.7145385742192	47.39380645751955	-1125.913818359375	940.6990356445317	117.0049514770508	-1020.169860839844	899.1826171875005	124.0408401489258	-973.8690795898442	752.0012207031252	80.72774505615237	-902.1835327148442	809.452514648438	145.3297424316407	-944.5253906250005	592.7642211914065	153.1986389160157	-966.2737426757817	453.9649353027346	156.9196777343751	-1000.122680664063	527.865417480469	83.62332916259768	-1015.920532226563	305.5315856933595	112.4548950195313	-1077.81396484375	270.566864013672	168.2117614746094	-909.0539550781255	293.7003479003907	155.6141052246094	-945.2140502929692	267.7673645019532	95.01938629150393	-840.9469604492192	236.3987579345704	175.6828613281251	-826.2180786132817	262.9483642578126	134.9521484375001	-882.7319335937505	228.3145751953126	57.96995925903323	-1517.889404296875	780.9172363281255	379.0676269531251	-1585.205444335938	692.1824340820315	354.5710449218751	-1435.521118164063	685.460632324219	298.205535888672	-1509.362670898438	621.317077636719	273.700164794922	-1691.223144531251	590.5867919921877	312.8142700195314	-1634.145263671876	526.6461181640627	252.1168518066407	-1873.748657226563	467.2416992187502	228.8950653076173	-1991.578735351563	415.7624206542971	215.8936614990236	-1907.256469726563	506.0871887207034	303.5472717285157	-2114.733642578126	393.2316894531252	269.0392456054689	-2146.157226562501	451.4793701171877	212.7996063232423	-2110.180908203126	281.8919067382814	223.3030853271486	-2154.149169921876	319.7659912109376	271.9076232910157	-2161.481933593751	217.2826995849611	177.7122497558594	-2145.478759765626	201.0876312255861	221.2104797363282	-2197.083496093751	246.4515686035157	295.919403076172	
125	0.496	-1311.048217773438	1479.218872070313	199.2713623046876	-1243.738159179688	1481.30322265625	335.0643310546876	-1271.7060546875	1475.603881835938	23.09346771240235	-1180.392456054688	1376.921264648438	162.3599700927735	-1387.666748046875	1292.030883789063	228.8813934326173	-1435.896850585938	1440.865234375	-46.82024383544923	-1578.943847656251	1440.859252929688	-58.21497726440433	-1667.723876953126	1322.04833984375	-95.77020263671878	-1766.659179687501	1234.598022460938	-112.6940155029297	-1121.998901367188	1341.555053710938	427.7864685058596	-1035.088256835938	1242.177856445313	469.825866699219	-975.9223022460942	1350.116088867188	393.8822021484377	-927.9805297851567	1443.336181640625	326.8939819335939	-1232.955078125	973.067260742188	306.7597961425782	-1233.96923828125	997.4113769531255	92.60630798339847	-1401.677978515625	1062.154296875	209.1009063720704	-1420.641479492188	1034.035034179688	156.2209472656251	-1421.925903320313	1042.40625	262.6334838867189	-1465.332397460938	994.305541992188	210.5865631103517	-1130.708618164063	827.6633911132817	21.37800025939942	-1024.06787109375	796.070922851563	46.546199798584	-1089.51708984375	935.0173339843755	118.7261657714844	-984.8159179687505	892.3016967773442	124.7422943115235	-940.1817016601567	744.1926269531252	79.65592193603518	-869.5519409179692	803.236938476563	143.6051025390626	-900.5998535156255	584.9235839843752	152.1150207519532	-912.7841796875005	444.8175048828127	156.5427856445313	-949.6149902343755	515.1326904296877	81.49560546875003	-949.6796875000005	292.1687927246095	112.1062011718751	-1011.209716796875	254.4298095703126	166.9249420166016	-843.8499145507817	289.4231262207032	157.5369415283204	-875.925415039063	259.2295227050782	97.16992187500006	-771.9738159179692	238.5078887939454	182.0495910644532	-755.487731933594	266.1021423339845	137.1210632324219	-810.2859497070317	222.6045837402345	63.4704284667969	-1477.454345703125	778.402954101563	380.1813354492189	-1544.323730468751	689.667663574219	355.7030639648439	-1394.2373046875	685.0061645507815	299.1002807617189	-1467.471557617188	619.0542602539065	276.5466613769532	-1652.268554687501	589.9366455078127	313.7662963867189	-1596.107177734376	523.8989868164065	253.8540344238282	-1841.620849609376	479.2850646972659	229.1082458496095	-1963.147338867188	436.5911865234377	215.4405670166017	-1873.307006835938	521.3284301757815	303.3014526367189	-2087.989501953126	422.3040466308596	268.3802795410157	-2117.201904296876	480.6881408691409	212.1707763671876	-2087.105468750001	310.6376953125001	223.5901794433595	-2128.722656250001	350.6063232421876	272.5565795898439	-2142.113281250001	246.3977355957032	179.0813446044922	-2127.417480468751	229.092498779297	222.7184295654298	-2175.582031250001	277.5816040039064	296.979705810547	
